<svg data-v-fde0c5aa="" xmlns="http://www.w3.org/2000/svg" viewBox="0 0 300 300" class="iconAbove"><!----><defs data-v-fde0c5aa=""><!----></defs><rect data-v-fde0c5aa="" fill="#EDECF4" x="0" y="0" width="300px" height="300px" class="logo-background-square"></rect><defs data-v-fde0c5aa=""><!----></defs><g data-v-fde0c5aa="" id="d3a013ce-5629-4507-b5ed-047ad549ac5c" fill="#3C2A35" transform="matrix(3.6733541181700318,0,0,3.6733541181700318,18.457191209062877,187.33992758219114)"><path d="M0.56 3.92C0.87 3.98 1.16 4.00 1.46 4.00L1.46 11.94L0.42 11.94L0.42 12.17L5.52 12.17L5.52 11.94L4.31 11.94L4.31 3.12C4.61 2.79 4.77 2.34 4.77 1.75C4.77 0.74 4.02 0 2.93 0C1.79 0 1.19 0.87 1.19 1.68C1.19 2.39 1.71 3.15 2.67 3.15C3.44 3.15 4.13 2.67 4.13 1.72C4.13 1.05 3.57 0.55 2.91 0.55C2.67 0.55 2.48 0.64 2.42 0.67C2.41 0.67 2.32 0.74 2.25 0.74C2.18 0.74 2.14 0.67 2.14 0.62C2.14 0.57 2.16 0.53 2.18 0.50C2.30 0.39 2.62 0.27 2.93 0.27C3.84 0.27 4.51 0.90 4.51 1.79C4.51 3.16 3.36 3.72 1.71 3.72C1.34 3.72 0.95 3.71 0.56 3.65ZM6.96 5.95L6.96 11.94L6.09 11.94L6.09 12.17L9.55 12.17L9.55 9.56C9.55 8.13 9.83 6.22 10.54 6.22C11.17 6.22 11.23 7.29 11.23 8.93L11.23 11.94L10.36 11.94L10.36 12.17L14.69 12.17L14.69 11.94L13.82 11.94L13.82 8.34C13.82 6.65 13.33 5.46 11.63 5.46C10.65 5.46 10.04 5.92 9.67 6.83L9.60 6.83L9.60 5.46C8.67 5.66 7.77 5.73 6.80 5.73L5.96 5.73L5.96 5.95ZM19.15 5.75C20.37 5.75 20.90 6.30 20.90 6.51C20.90 6.59 20.83 6.64 20.78 6.64C20.69 6.64 20.64 6.57 20.57 6.48C20.47 6.37 20.31 6.23 19.98 6.23C19.43 6.23 19.07 6.66 19.07 7.20C19.07 7.84 19.56 8.26 20.13 8.26C20.90 8.26 21.32 7.67 21.32 7.03C21.32 6.16 20.55 5.47 18.75 5.47C16.28 5.47 15.37 6.44 15.37 7.50C15.37 9.42 19.33 9.88 19.33 11.28C19.33 11.93 18.54 12.17 17.79 12.17C16.39 12.17 15.71 11.59 15.71 11.37C15.71 11.30 15.76 11.24 15.82 11.24C15.93 11.24 15.96 11.33 16.06 11.42C16.17 11.54 16.31 11.65 16.60 11.65C17.16 11.65 17.54 11.24 17.54 10.68C17.54 10.04 17.05 9.63 16.48 9.63C15.69 9.63 15.27 10.22 15.27 10.86C15.27 12.17 16.98 12.43 17.93 12.43C20.47 12.43 21.60 11.61 21.60 10.47C21.60 8.36 17.67 8.20 17.67 6.80C17.67 6.10 18.28 5.75 19.15 5.75ZM24.81 12.43C26.24 12.43 26.71 11.52 26.87 10.26L26.61 10.23C26.53 11.00 26.29 11.63 25.93 11.63C25.73 11.63 25.68 11.38 25.68 11.06L25.68 5.95L26.98 5.95L26.98 5.73L25.68 5.73L25.68 3.32L25.49 3.32C25.07 5.17 23.10 5.73 22.40 5.73L22.30 5.73L22.30 5.95L23.03 5.95L23.03 10.39C23.03 11.83 23.79 12.43 24.81 12.43ZM31.89 10.05C31.89 10.75 31.64 11.73 31.02 11.73C30.60 11.73 30.24 11.31 30.24 10.30C30.24 9.10 31.01 8.71 31.89 8.75ZM32.16 10.84C32.23 11.65 32.79 12.43 33.78 12.43C35.07 12.43 35.57 11.52 35.73 10.26L35.48 10.23C35.39 11.00 35.15 11.63 34.79 11.63C34.59 11.63 34.54 11.38 34.54 11.06L34.54 8.68C34.54 6.48 33.84 5.46 30.81 5.46C29.08 5.46 28.03 6.13 28.03 7.21C28.03 7.84 28.50 8.39 29.27 8.39C29.81 8.39 30.34 7.95 30.34 7.32C30.34 6.82 30.00 6.31 29.44 6.31C28.85 6.31 28.67 6.82 28.67 6.82C28.63 6.90 28.62 7.03 28.49 7.03C28.43 7.03 28.36 6.99 28.36 6.90C28.36 6.33 29.30 5.74 30.38 5.74C31.86 5.74 31.89 7.01 31.89 8.04L31.89 8.50C30.60 8.50 27.59 8.62 27.59 10.58C27.59 11.98 28.78 12.43 29.95 12.43C31.40 12.43 31.85 11.70 32.07 10.84ZM36.25 8.20C36.25 9.28 36.76 10.04 37.53 10.47C36.48 10.93 35.91 11.76 35.91 12.59C35.91 13.47 36.50 14.17 37.44 14.24C38.15 15.13 39.10 15.43 39.90 15.43C41.58 15.43 42.99 14.28 42.99 12.84C42.99 11.93 42.32 11.31 41.23 11.31C40.39 11.31 39.02 11.87 37.80 11.87C37.32 11.87 36.92 11.83 36.92 11.41C36.92 11.05 37.42 10.79 37.81 10.63C38.32 10.85 38.88 10.95 39.47 10.95C41.13 10.95 42.69 10.05 42.69 8.20C42.69 6.99 42.01 6.19 41.08 5.78C40.54 5.52 40.22 5.17 40.22 4.61C40.22 4.09 40.52 3.79 40.68 3.67C40.77 3.61 40.82 3.58 40.89 3.58C40.98 3.58 41.02 3.64 41.02 3.71C41.02 3.81 40.91 3.85 40.81 3.93C40.71 4.02 40.53 4.26 40.53 4.58C40.53 5.12 40.96 5.50 41.52 5.50C42.15 5.50 42.57 5.01 42.57 4.41C42.57 3.65 41.99 3.22 41.31 3.22C40.53 3.22 39.97 3.85 39.97 4.61C39.97 4.98 40.10 5.29 40.32 5.54C40.04 5.49 39.76 5.46 39.47 5.46C37.80 5.46 36.25 6.36 36.25 8.20ZM39.47 10.70C38.72 10.70 38.72 9.42 38.72 8.20C38.72 6.99 38.72 5.71 39.47 5.71C40.21 5.71 40.21 6.99 40.21 8.20C40.21 9.42 40.21 10.70 39.47 10.70ZM41.15 13.71C41.72 13.71 41.90 13.94 41.90 14.22C41.90 14.74 40.82 15.18 39.90 15.18C39.12 15.18 38.30 14.85 37.79 14.24C38.72 14.18 40.38 13.71 41.15 13.71ZM47.01 6.59L47.01 5.46C46.07 5.66 45.18 5.73 44.21 5.73L43.37 5.73L43.37 5.95L44.37 5.95L44.37 11.94L43.50 11.94L43.50 12.17L48.01 12.17L48.01 11.94L46.96 11.94L46.96 9.16C46.96 6.94 47.50 5.71 48.68 5.71C49.20 5.71 49.50 5.99 49.63 6.16C49.69 6.24 49.71 6.30 49.71 6.37C49.71 6.45 49.66 6.50 49.59 6.50C49.49 6.50 49.45 6.38 49.36 6.29C49.28 6.19 49.07 6.01 48.75 6.01C48.20 6.01 47.82 6.44 47.82 7C47.82 7.63 48.31 8.05 48.92 8.05C49.67 8.05 50.11 7.46 50.11 6.79C50.11 6.06 49.50 5.46 48.66 5.46C47.91 5.46 47.36 5.95 47.08 6.59ZM54.63 10.05C54.63 10.75 54.38 11.73 53.76 11.73C53.34 11.73 52.98 11.31 52.98 10.30C52.98 9.10 53.75 8.71 54.63 8.75ZM54.89 10.84C54.96 11.65 55.52 12.43 56.52 12.43C57.81 12.43 58.31 11.52 58.46 10.26L58.21 10.23C58.13 11.00 57.89 11.63 57.53 11.63C57.33 11.63 57.27 11.38 57.27 11.06L57.27 8.68C57.27 6.48 56.57 5.46 53.55 5.46C51.81 5.46 50.76 6.13 50.76 7.21C50.76 7.84 51.24 8.39 52.01 8.39C52.54 8.39 53.07 7.95 53.07 7.32C53.07 6.82 52.74 6.31 52.18 6.31C51.59 6.31 51.41 6.82 51.41 6.82C51.37 6.90 51.35 7.03 51.23 7.03C51.17 7.03 51.10 6.99 51.10 6.90C51.10 6.33 52.04 5.74 53.12 5.74C54.60 5.74 54.63 7.01 54.63 8.04L54.63 8.50C53.34 8.50 50.33 8.62 50.33 10.58C50.33 11.98 51.52 12.43 52.68 12.43C54.14 12.43 54.59 11.70 54.81 10.84ZM66.12 6.83L66.11 6.85C65.81 6.05 65.24 5.46 64.18 5.46C63.20 5.46 62.58 5.92 62.22 6.83L62.15 6.83L62.15 5.46C61.21 5.66 60.31 5.73 59.35 5.73L58.51 5.73L58.51 5.95L59.50 5.95L59.50 11.94L58.63 11.94L58.63 12.17L62.09 12.17L62.09 9.56C62.09 8.13 62.37 6.22 63.08 6.22C63.71 6.22 63.77 7.29 63.77 8.93L63.77 11.94L62.90 11.94L62.90 12.17L66.07 12.17L66.07 9.56C66.07 8.13 66.35 6.22 67.06 6.22C67.69 6.22 67.75 7.29 67.75 8.93L67.75 11.94L66.88 11.94L66.88 12.17L71.20 12.17L71.20 11.94L70.34 11.94L70.34 8.34C70.34 6.65 69.85 5.46 68.15 5.46C67.17 5.46 66.56 5.92 66.19 6.83Z"></path></g><defs data-v-fde0c5aa=""><linearGradient data-v-fde0c5aa="" gradientTransform="rotate(25)" id="e4113a0b-7b0c-4ea2-a5de-dd07a9dfa0f8" x1="0%" y1="0%" x2="100%" y2="0%"><stop data-v-fde0c5aa="" offset="0%" stop-color="#A54665" stop-opacity="1"></stop><stop data-v-fde0c5aa="" offset="100%" stop-color="#ADBDE0" stop-opacity="1"></stop></linearGradient></defs><g data-v-fde0c5aa="" id="0c515b7a-0a3f-415c-9fd7-149bdf39fcba" stroke="none" fill="url(#e4113a0b-7b0c-4ea2-a5de-dd07a9dfa0f8)" transform="matrix(2.361660631849263,0,0,2.361660631849263,53.17191409418023,-360.5576766889872)"><path d="M41 203.896a3.523 3.523 0 0 0 3.521-3.521A3.523 3.523 0 0 0 41 196.854a3.522 3.522 0 0 0-3.521 3.521A3.522 3.522 0 0 0 41 203.896zm7.602-10.312a1.917 1.917 0 1 0 .002-3.834 1.917 1.917 0 0 0-.002 3.834zm-.56 6.791a7.042 7.042 0 0 1-14.084 0c0-.818.147-1.602.404-2.334h-3.404v9.545a3.006 3.006 0 0 0 2.998 2.997h13.589a3.006 3.006 0 0 0 2.997-2.997v-12.545H45.59a7.023 7.023 0 0 1 2.452 5.334zm-7.042-24c-13.255 0-24 10.745-24 24s10.745 24 24 24 24-10.745 24-24-10.745-24-24-24zm12.814 33.732c0 2.199-1.799 4-4 4H31.685c-2.2 0-4-1.801-4-4v-18.131c0-2.201 1.8-4 4-4h18.131c2.199 0 4 1.799 4 4v18.131h-.002z"></path></g><!----></svg>